<svg width="25" height="24" viewBox="0 0 25 24" fill="none" xmlns="http://www.w3.org/2000/svg">
<g clip-path="url(#clip0_745_611)">
<path d="M2.66663 22C2.66663 19.8783 3.50948 17.8434 5.00977 16.3431C6.51006 14.8429 8.54489 14 10.6666 14C12.7884 14 14.8232 14.8429 16.3235 16.3431C17.8238 17.8434 18.6666 19.8783 18.6666 22H16.6666C16.6666 20.4087 16.0345 18.8826 14.9093 17.7574C13.784 16.6321 12.2579 16 10.6666 16C9.07533 16 7.5492 16.6321 6.42399 17.7574C5.29877 18.8826 4.66663 20.4087 4.66663 22H2.66663ZM10.6666 13C7.35163 13 4.66663 10.315 4.66663 7C4.66663 3.685 7.35163 1 10.6666 1C13.9816 1 16.6666 3.685 16.6666 7C16.6666 10.315 13.9816 13 10.6666 13ZM10.6666 11C12.8766 11 14.6666 9.21 14.6666 7C14.6666 4.79 12.8766 3 10.6666 3C8.45663 3 6.66663 4.79 6.66663 7C6.66663 9.21 8.45663 11 10.6666 11ZM18.9506 14.703C20.356 15.3359 21.5486 16.3612 22.3852 17.6557C23.2218 18.9502 23.6668 20.4587 23.6666 22H21.6666C21.6669 20.844 21.3332 19.7125 20.7057 18.7416C20.0782 17.7707 19.1837 17.0017 18.1296 16.527L18.9496 14.703H18.9506ZM18.2626 3.413C19.2702 3.8283 20.1316 4.53354 20.7376 5.43923C21.3437 6.34492 21.667 7.41024 21.6666 8.5C21.667 9.87233 21.1543 11.1952 20.2292 12.2088C19.304 13.2224 18.0333 13.8535 16.6666 13.978V11.965C17.4076 11.8589 18.095 11.518 18.6279 10.9925C19.1609 10.4669 19.5113 9.78432 19.6278 9.04493C19.7442 8.30555 19.6206 7.5483 19.275 6.88435C18.9294 6.22041 18.3801 5.68475 17.7076 5.356L18.2626 3.413Z" fill="#FFA800"/>
</g>
<defs>
<clipPath id="clip0_745_611">
<rect width="24" height="24" fill="white" transform="translate(0.666626)"/>
</clipPath>
</defs>
</svg>
