<svg width="28" height="27" viewBox="0 0 28 27" fill="none" xmlns="http://www.w3.org/2000/svg">
<path d="M14 0.0826721C17.6226 0.0826721 18.0746 0.0960054 19.496 0.162672C20.916 0.229339 21.8826 0.452006 22.7333 0.782672C23.6133 1.12134 24.3546 1.58001 25.096 2.32001C25.774 2.98653 26.2986 3.79279 26.6333 4.68267C26.9626 5.53201 27.1866 6.50001 27.2533 7.92001C27.316 9.34134 27.3333 9.79334 27.3333 13.416C27.3333 17.0387 27.32 17.4907 27.2533 18.912C27.1866 20.332 26.9626 21.2987 26.6333 22.1493C26.2995 23.0397 25.7748 23.8462 25.096 24.512C24.4292 25.1898 23.623 25.7143 22.7333 26.0493C21.884 26.3787 20.916 26.6027 19.496 26.6693C18.0746 26.732 17.6226 26.7493 14 26.7493C10.3773 26.7493 9.92529 26.736 8.50396 26.6693C7.08396 26.6027 6.11729 26.3787 5.26663 26.0493C4.37639 25.7153 3.57 25.1906 2.90396 24.512C2.22583 23.8456 1.7012 23.0393 1.36663 22.1493C1.03596 21.3 0.813293 20.332 0.746626 18.912C0.683959 17.4907 0.666626 17.0387 0.666626 13.416C0.666626 9.79334 0.679959 9.34134 0.746626 7.92001C0.813293 6.49867 1.03596 5.53334 1.36663 4.68267C1.70027 3.79224 2.22503 2.98577 2.90396 2.32001C3.57019 1.64165 4.37653 1.11698 5.26663 0.782672C6.11729 0.452006 7.08263 0.229339 8.50396 0.162672C9.92529 0.100005 10.3773 0.0826721 14 0.0826721ZM14 6.74934C12.2318 6.74934 10.5362 7.45172 9.28591 8.70196C8.03567 9.9522 7.33329 11.6479 7.33329 13.416C7.33329 15.1841 8.03567 16.8798 9.28591 18.1301C10.5362 19.3803 12.2318 20.0827 14 20.0827C15.7681 20.0827 17.4638 19.3803 18.714 18.1301C19.9642 16.8798 20.6666 15.1841 20.6666 13.416C20.6666 11.6479 19.9642 9.9522 18.714 8.70196C17.4638 7.45172 15.7681 6.74934 14 6.74934V6.74934ZM22.6666 6.41601C22.6666 5.97398 22.491 5.55005 22.1785 5.23749C21.8659 4.92493 21.442 4.74934 21 4.74934C20.5579 4.74934 20.134 4.92493 19.8214 5.23749C19.5089 5.55005 19.3333 5.97398 19.3333 6.41601C19.3333 6.85803 19.5089 7.28196 19.8214 7.59452C20.134 7.90708 20.5579 8.08267 21 8.08267C21.442 8.08267 21.8659 7.90708 22.1785 7.59452C22.491 7.28196 22.6666 6.85803 22.6666 6.41601ZM14 9.41601C15.0608 9.41601 16.0782 9.83743 16.8284 10.5876C17.5785 11.3377 18 12.3551 18 13.416C18 14.4769 17.5785 15.4943 16.8284 16.2444C16.0782 16.9946 15.0608 17.416 14 17.416C12.9391 17.416 11.9217 16.9946 11.1715 16.2444C10.4214 15.4943 9.99996 14.4769 9.99996 13.416C9.99996 12.3551 10.4214 11.3377 11.1715 10.5876C11.9217 9.83743 12.9391 9.41601 14 9.41601V9.41601Z" fill="#7B61FF"/>
</svg>
