<svg width="25" height="24" viewBox="0 0 25 24" fill="none" xmlns="http://www.w3.org/2000/svg">
<g clip-path="url(#clip0_745_117)">
<path d="M17.3333 3H21.3333C21.5985 3 21.8528 3.10536 22.0404 3.29289C22.2279 3.48043 22.3333 3.73478 22.3333 4V20C22.3333 20.2652 22.2279 20.5196 22.0404 20.7071C21.8528 20.8946 21.5985 21 21.3333 21H3.33325C3.06804 21 2.81368 20.8946 2.62615 20.7071C2.43861 20.5196 2.33325 20.2652 2.33325 20V4C2.33325 3.73478 2.43861 3.48043 2.62615 3.29289C2.81368 3.10536 3.06804 3 3.33325 3H7.33325V1H9.33325V3H15.3333V1H17.3333V3ZM4.33325 9V19H20.3333V9H4.33325ZM6.33325 13H11.3333V17H6.33325V13Z" fill="#FFA800"/>
</g>
<defs>
<clipPath id="clip0_745_117">
<rect width="24" height="24" fill="white" transform="translate(0.333252)"/>
</clipPath>
</defs>
</svg>
