<svg width="16" height="16" viewBox="0 0 16 16" fill="none" xmlns="http://www.w3.org/2000/svg">
<path d="M4.86065 13.8827L1.33332 14.6667L2.11732 11.1394C1.60101 10.1736 1.33167 9.09514 1.33332 8.00004C1.33332 4.31804 4.31799 1.33337 7.99999 1.33337C11.682 1.33337 14.6667 4.31804 14.6667 8.00004C14.6667 11.682 11.682 14.6667 7.99999 14.6667C6.90489 14.6684 5.8264 14.399 4.86065 13.8827V13.8827ZM5.05399 12.474L5.48932 12.7074C6.26169 13.1201 7.12425 13.3352 7.99999 13.3334C9.05482 13.3334 10.086 13.0206 10.963 12.4345C11.8401 11.8485 12.5237 11.0156 12.9273 10.041C13.331 9.06648 13.4366 7.99412 13.2308 6.95956C13.0251 5.92499 12.5171 4.97468 11.7712 4.2288C11.0253 3.48292 10.075 2.97497 9.04047 2.76919C8.0059 2.5634 6.93355 2.66902 5.95901 3.07268C4.98447 3.47635 4.15152 4.15994 3.56548 5.037C2.97945 5.91406 2.66665 6.94521 2.66665 8.00004C2.66665 8.88937 2.88332 9.74537 3.29332 10.5107L3.52599 10.946L3.08932 12.9107L5.05399 12.474V12.474Z" fill="#979797"/>
</svg>
