<svg width="16" height="16" viewBox="0 0 16 16" fill="none" xmlns="http://www.w3.org/2000/svg">
<g clip-path="url(#clip0_301_11804)">
<path d="M2.66666 14.6666C2.66666 13.2521 3.22856 11.8956 4.22875 10.8954C5.22895 9.8952 6.5855 9.33329 7.99999 9.33329C9.41448 9.33329 10.771 9.8952 11.7712 10.8954C12.7714 11.8956 13.3333 13.2521 13.3333 14.6666H12C12 13.6058 11.5786 12.5883 10.8284 11.8382C10.0783 11.0881 9.06086 10.6666 7.99999 10.6666C6.93912 10.6666 5.92171 11.0881 5.17156 11.8382C4.42142 12.5883 3.99999 13.6058 3.99999 14.6666H2.66666ZM7.99999 8.66663C5.78999 8.66663 3.99999 6.87663 3.99999 4.66663C3.99999 2.45663 5.78999 0.666626 7.99999 0.666626C10.21 0.666626 12 2.45663 12 4.66663C12 6.87663 10.21 8.66663 7.99999 8.66663ZM7.99999 7.33329C9.47332 7.33329 10.6667 6.13996 10.6667 4.66663C10.6667 3.19329 9.47332 1.99996 7.99999 1.99996C6.52666 1.99996 5.33332 3.19329 5.33332 4.66663C5.33332 6.13996 6.52666 7.33329 7.99999 7.33329Z" fill="#979797"/>
</g>
<defs>
<clipPath id="clip0_301_11804">
<rect width="16" height="16" fill="white"/>
</clipPath>
</defs>
</svg>
