<svg width="16" height="16" viewBox="0 0 16 16" fill="none" xmlns="http://www.w3.org/2000/svg">
<g clip-path="url(#clip0_301_11706)">
<path d="M11.3333 2.66671H14C14.1768 2.66671 14.3464 2.73695 14.4714 2.86197C14.5964 2.98699 14.6667 3.15656 14.6667 3.33337V14C14.6667 14.1769 14.5964 14.3464 14.4714 14.4714C14.3464 14.5965 14.1768 14.6667 14 14.6667H2.00001C1.8232 14.6667 1.65363 14.5965 1.52861 14.4714C1.40358 14.3464 1.33334 14.1769 1.33334 14V3.33337C1.33334 3.15656 1.40358 2.98699 1.52861 2.86197C1.65363 2.73695 1.8232 2.66671 2.00001 2.66671H4.66668V1.33337H6.00001V2.66671H10V1.33337H11.3333V2.66671ZM13.3333 8.00004H2.66668V13.3334H13.3333V8.00004ZM10 4.00004H6.00001V5.33337H4.66668V4.00004H2.66668V6.66671H13.3333V4.00004H11.3333V5.33337H10V4.00004ZM4.00001 9.33337H5.33334V10.6667H4.00001V9.33337ZM7.33334 9.33337H8.66668V10.6667H7.33334V9.33337ZM10.6667 9.33337H12V10.6667H10.6667V9.33337Z" fill="#979797"/>
</g>
<defs>
<clipPath id="clip0_301_11706">
<rect width="16" height="16" fill="white"/>
</clipPath>
</defs>
</svg>
