<svg width="28" height="23" viewBox="0 0 28 23" fill="none" xmlns="http://www.w3.org/2000/svg">
<path d="M27.5493 2.95734C26.5314 3.4076 25.4519 3.70331 24.3466 3.83468C25.5116 3.13792 26.3836 2.04136 26.7999 0.749343C25.7066 1.40001 24.5079 1.85601 23.2586 2.10268C22.4194 1.20478 21.3071 0.609294 20.0946 0.408789C18.882 0.208284 17.6372 0.413997 16.5536 0.993947C15.4701 1.5739 14.6085 2.49559 14.1028 3.61573C13.5971 4.73588 13.4756 5.99172 13.7573 7.18801C11.5401 7.07688 9.37106 6.50071 7.391 5.49689C5.41094 4.49308 3.66412 3.08407 2.26395 1.36134C1.76833 2.21261 1.50789 3.18031 1.50928 4.16534C1.50928 6.09868 2.49328 7.80668 3.98928 8.80668C3.10396 8.7788 2.23812 8.53972 1.46395 8.10934V8.17868C1.46422 9.46628 1.90977 10.7142 2.72508 11.7108C3.54038 12.7073 4.67526 13.3913 5.93728 13.6467C5.11543 13.8694 4.25369 13.9022 3.41728 13.7427C3.7731 14.851 4.46662 15.8203 5.40074 16.5148C6.33485 17.2094 7.46279 17.5944 8.62661 17.616C7.46992 18.5244 6.14552 19.196 4.72912 19.5922C3.31273 19.9885 1.83212 20.1017 0.371948 19.9253C2.92088 21.5646 5.88808 22.4348 8.91861 22.432C19.1759 22.432 24.7853 13.9347 24.7853 6.56534C24.7853 6.32534 24.7786 6.08268 24.7679 5.84534C25.8598 5.05623 26.8021 4.0787 27.5506 2.95868L27.5493 2.95734Z" fill="#7B61FF"/>
</svg>
